<mxfile host="app.diagrams.net" agent="Mozilla/5.0 (Macintosh; Intel Mac OS X 10_15_7) AppleWebKit/605.1.15 (KHTML, like Gecko) Version/17.6 Safari/605.1.15" version="24.7.16">
  <diagram name="Page-1" id="TqevF_K_1Zse74cjp3pf">
    <mxGraphModel dx="1134" dy="781" grid="1" gridSize="10" guides="1" tooltips="1" connect="1" arrows="1" fold="1" page="1" pageScale="1" pageWidth="827" pageHeight="1169" math="0" shadow="0">
      <root>
        <mxCell id="0" />
        <mxCell id="1" parent="0" />
        <mxCell id="iE8pw9dlS1XEyUqKu7f_-1" value="Владелец" style="rounded=0;whiteSpace=wrap;html=1;" vertex="1" parent="1">
          <mxGeometry x="280" y="50" width="120" height="60" as="geometry" />
        </mxCell>
        <mxCell id="iE8pw9dlS1XEyUqKu7f_-2" value="" style="endArrow=classic;html=1;rounded=0;entryX=0.5;entryY=1;entryDx=0;entryDy=0;exitX=0.5;exitY=0;exitDx=0;exitDy=0;" edge="1" parent="1" source="iE8pw9dlS1XEyUqKu7f_-3" target="iE8pw9dlS1XEyUqKu7f_-1">
          <mxGeometry width="50" height="50" relative="1" as="geometry">
            <mxPoint x="339.5" y="230" as="sourcePoint" />
            <mxPoint x="339.5" y="140" as="targetPoint" />
          </mxGeometry>
        </mxCell>
        <mxCell id="iE8pw9dlS1XEyUqKu7f_-3" value="Администратор" style="rounded=0;whiteSpace=wrap;html=1;" vertex="1" parent="1">
          <mxGeometry x="280" y="260" width="120" height="60" as="geometry" />
        </mxCell>
        <mxCell id="iE8pw9dlS1XEyUqKu7f_-4" value="" style="endArrow=classic;html=1;rounded=0;entryX=0.5;entryY=1;entryDx=0;entryDy=0;exitX=0.5;exitY=0;exitDx=0;exitDy=0;" edge="1" parent="1" source="iE8pw9dlS1XEyUqKu7f_-8" target="iE8pw9dlS1XEyUqKu7f_-3">
          <mxGeometry width="50" height="50" relative="1" as="geometry">
            <mxPoint x="339.5" y="440" as="sourcePoint" />
            <mxPoint x="339.5" y="340" as="targetPoint" />
          </mxGeometry>
        </mxCell>
        <mxCell id="iE8pw9dlS1XEyUqKu7f_-8" value="Пользователь" style="rounded=0;whiteSpace=wrap;html=1;" vertex="1" parent="1">
          <mxGeometry x="280" y="450" width="120" height="60" as="geometry" />
        </mxCell>
        <mxCell id="iE8pw9dlS1XEyUqKu7f_-10" value="Создавать страницы" style="rounded=0;whiteSpace=wrap;html=1;" vertex="1" parent="1">
          <mxGeometry x="40" y="590" width="120" height="60" as="geometry" />
        </mxCell>
        <mxCell id="iE8pw9dlS1XEyUqKu7f_-11" value="Редактировать страницы" style="rounded=0;whiteSpace=wrap;html=1;" vertex="1" parent="1">
          <mxGeometry x="40" y="690" width="120" height="60" as="geometry" />
        </mxCell>
        <mxCell id="iE8pw9dlS1XEyUqKu7f_-12" value="Удалять страницы" style="rounded=0;whiteSpace=wrap;html=1;" vertex="1" parent="1">
          <mxGeometry x="40" y="790" width="120" height="60" as="geometry" />
        </mxCell>
        <mxCell id="iE8pw9dlS1XEyUqKu7f_-14" value="Просматривать страницы" style="rounded=0;whiteSpace=wrap;html=1;" vertex="1" parent="1">
          <mxGeometry x="40" y="880" width="120" height="60" as="geometry" />
        </mxCell>
        <mxCell id="iE8pw9dlS1XEyUqKu7f_-18" value="Создавать заметки" style="rounded=0;whiteSpace=wrap;html=1;" vertex="1" parent="1">
          <mxGeometry x="220" y="590" width="120" height="60" as="geometry" />
        </mxCell>
        <mxCell id="iE8pw9dlS1XEyUqKu7f_-19" value="Редактировать заметки" style="rounded=0;whiteSpace=wrap;html=1;" vertex="1" parent="1">
          <mxGeometry x="220" y="690" width="120" height="60" as="geometry" />
        </mxCell>
        <mxCell id="iE8pw9dlS1XEyUqKu7f_-20" value="Удалять заметки" style="rounded=0;whiteSpace=wrap;html=1;" vertex="1" parent="1">
          <mxGeometry x="220" y="790" width="120" height="60" as="geometry" />
        </mxCell>
        <mxCell id="iE8pw9dlS1XEyUqKu7f_-25" value="Создавать списки задач" style="rounded=0;whiteSpace=wrap;html=1;" vertex="1" parent="1">
          <mxGeometry x="390" y="590" width="120" height="60" as="geometry" />
        </mxCell>
        <mxCell id="iE8pw9dlS1XEyUqKu7f_-26" value="Редактировать списки задач" style="rounded=0;whiteSpace=wrap;html=1;" vertex="1" parent="1">
          <mxGeometry x="390" y="690" width="120" height="60" as="geometry" />
        </mxCell>
        <mxCell id="iE8pw9dlS1XEyUqKu7f_-27" value="Удалять списки задач" style="rounded=0;whiteSpace=wrap;html=1;" vertex="1" parent="1">
          <mxGeometry x="390" y="790" width="120" height="60" as="geometry" />
        </mxCell>
        <mxCell id="iE8pw9dlS1XEyUqKu7f_-32" value="Создавать календари" style="rounded=0;whiteSpace=wrap;html=1;" vertex="1" parent="1">
          <mxGeometry x="220" y="970" width="120" height="60" as="geometry" />
        </mxCell>
        <mxCell id="iE8pw9dlS1XEyUqKu7f_-33" value="Редактировать календари" style="rounded=0;whiteSpace=wrap;html=1;" vertex="1" parent="1">
          <mxGeometry x="400" y="970" width="120" height="60" as="geometry" />
        </mxCell>
        <mxCell id="iE8pw9dlS1XEyUqKu7f_-34" value="Удалять календари" style="rounded=0;whiteSpace=wrap;html=1;" vertex="1" parent="1">
          <mxGeometry x="40" y="1070" width="120" height="60" as="geometry" />
        </mxCell>
        <mxCell id="iE8pw9dlS1XEyUqKu7f_-37" value="Создавать комментарии" style="rounded=0;whiteSpace=wrap;html=1;" vertex="1" parent="1">
          <mxGeometry x="570" y="1070" width="120" height="60" as="geometry" />
        </mxCell>
        <mxCell id="iE8pw9dlS1XEyUqKu7f_-38" value="Редактировать комментарии" style="rounded=0;whiteSpace=wrap;html=1;" vertex="1" parent="1">
          <mxGeometry x="220" y="1070" width="120" height="60" as="geometry" />
        </mxCell>
        <mxCell id="iE8pw9dlS1XEyUqKu7f_-39" value="Удалять комментарии" style="rounded=0;whiteSpace=wrap;html=1;" vertex="1" parent="1">
          <mxGeometry x="400" y="1070" width="120" height="60" as="geometry" />
        </mxCell>
        <mxCell id="iE8pw9dlS1XEyUqKu7f_-40" value="" style="endArrow=none;html=1;rounded=0;exitX=0.5;exitY=0;exitDx=0;exitDy=0;" edge="1" parent="1" source="iE8pw9dlS1XEyUqKu7f_-32" target="iE8pw9dlS1XEyUqKu7f_-45">
          <mxGeometry width="50" height="50" relative="1" as="geometry">
            <mxPoint x="278.57" y="960" as="sourcePoint" />
            <mxPoint x="278.57" y="940" as="targetPoint" />
          </mxGeometry>
        </mxCell>
        <mxCell id="iE8pw9dlS1XEyUqKu7f_-43" value="Добавлять изображения" style="rounded=0;whiteSpace=wrap;html=1;" vertex="1" parent="1">
          <mxGeometry x="40" y="970" width="120" height="60" as="geometry" />
        </mxCell>
        <mxCell id="iE8pw9dlS1XEyUqKu7f_-45" value="Входить в учётную запись" style="rounded=0;whiteSpace=wrap;html=1;" vertex="1" parent="1">
          <mxGeometry x="220" y="880" width="120" height="60" as="geometry" />
        </mxCell>
        <mxCell id="iE8pw9dlS1XEyUqKu7f_-46" value="Менять пароль" style="rounded=0;whiteSpace=wrap;html=1;" vertex="1" parent="1">
          <mxGeometry x="390" y="880" width="120" height="60" as="geometry" />
        </mxCell>
        <mxCell id="iE8pw9dlS1XEyUqKu7f_-51" value="" style="endArrow=none;html=1;rounded=0;entryX=0.5;entryY=1;entryDx=0;entryDy=0;" edge="1" parent="1" source="iE8pw9dlS1XEyUqKu7f_-38" target="iE8pw9dlS1XEyUqKu7f_-32">
          <mxGeometry width="50" height="50" relative="1" as="geometry">
            <mxPoint x="469.29" y="1070" as="sourcePoint" />
            <mxPoint x="469.29" y="1050" as="targetPoint" />
          </mxGeometry>
        </mxCell>
        <mxCell id="iE8pw9dlS1XEyUqKu7f_-52" value="" style="endArrow=none;html=1;rounded=0;entryX=0.5;entryY=1;entryDx=0;entryDy=0;exitX=0.5;exitY=0;exitDx=0;exitDy=0;" edge="1" parent="1" source="iE8pw9dlS1XEyUqKu7f_-37" target="iE8pw9dlS1XEyUqKu7f_-59">
          <mxGeometry width="50" height="50" relative="1" as="geometry">
            <mxPoint x="350" y="820" as="sourcePoint" />
            <mxPoint x="400" y="770" as="targetPoint" />
          </mxGeometry>
        </mxCell>
        <mxCell id="iE8pw9dlS1XEyUqKu7f_-56" value="Гость" style="rounded=0;whiteSpace=wrap;html=1;" vertex="1" parent="1">
          <mxGeometry x="610" y="450" width="120" height="60" as="geometry" />
        </mxCell>
        <mxCell id="iE8pw9dlS1XEyUqKu7f_-57" value="Просмотр страницы" style="rounded=0;whiteSpace=wrap;html=1;" vertex="1" parent="1">
          <mxGeometry x="610" y="570" width="120" height="60" as="geometry" />
        </mxCell>
        <mxCell id="iE8pw9dlS1XEyUqKu7f_-58" value="Регистрация" style="rounded=0;whiteSpace=wrap;html=1;" vertex="1" parent="1">
          <mxGeometry x="610" y="680" width="120" height="60" as="geometry" />
        </mxCell>
        <mxCell id="iE8pw9dlS1XEyUqKu7f_-59" value="Передача ссылки на страницу" style="rounded=0;whiteSpace=wrap;html=1;" vertex="1" parent="1">
          <mxGeometry x="570" y="970" width="120" height="60" as="geometry" />
        </mxCell>
        <mxCell id="iE8pw9dlS1XEyUqKu7f_-60" value="" style="endArrow=none;html=1;rounded=0;entryX=0.5;entryY=1;entryDx=0;entryDy=0;exitX=0.5;exitY=0;exitDx=0;exitDy=0;" edge="1" parent="1" source="iE8pw9dlS1XEyUqKu7f_-11" target="iE8pw9dlS1XEyUqKu7f_-10">
          <mxGeometry width="50" height="50" relative="1" as="geometry">
            <mxPoint x="350" y="810" as="sourcePoint" />
            <mxPoint x="400" y="760" as="targetPoint" />
          </mxGeometry>
        </mxCell>
        <mxCell id="iE8pw9dlS1XEyUqKu7f_-61" value="" style="endArrow=none;html=1;rounded=0;exitX=0.5;exitY=1;exitDx=0;exitDy=0;entryX=0.5;entryY=0;entryDx=0;entryDy=0;" edge="1" parent="1" source="iE8pw9dlS1XEyUqKu7f_-11" target="iE8pw9dlS1XEyUqKu7f_-12">
          <mxGeometry width="50" height="50" relative="1" as="geometry">
            <mxPoint x="350" y="810" as="sourcePoint" />
            <mxPoint x="400" y="760" as="targetPoint" />
          </mxGeometry>
        </mxCell>
        <mxCell id="iE8pw9dlS1XEyUqKu7f_-63" value="" style="endArrow=none;html=1;rounded=0;entryX=0.5;entryY=1;entryDx=0;entryDy=0;exitX=0.5;exitY=0;exitDx=0;exitDy=0;" edge="1" parent="1" source="iE8pw9dlS1XEyUqKu7f_-14" target="iE8pw9dlS1XEyUqKu7f_-12">
          <mxGeometry width="50" height="50" relative="1" as="geometry">
            <mxPoint x="350" y="810" as="sourcePoint" />
            <mxPoint x="400" y="760" as="targetPoint" />
          </mxGeometry>
        </mxCell>
        <mxCell id="iE8pw9dlS1XEyUqKu7f_-64" value="" style="endArrow=none;html=1;rounded=0;entryX=0.5;entryY=1;entryDx=0;entryDy=0;exitX=0.5;exitY=0;exitDx=0;exitDy=0;" edge="1" parent="1" source="iE8pw9dlS1XEyUqKu7f_-45" target="iE8pw9dlS1XEyUqKu7f_-20">
          <mxGeometry width="50" height="50" relative="1" as="geometry">
            <mxPoint x="350" y="810" as="sourcePoint" />
            <mxPoint x="400" y="760" as="targetPoint" />
          </mxGeometry>
        </mxCell>
        <mxCell id="iE8pw9dlS1XEyUqKu7f_-65" value="" style="endArrow=none;html=1;rounded=0;entryX=0.5;entryY=1;entryDx=0;entryDy=0;exitX=0.5;exitY=0;exitDx=0;exitDy=0;" edge="1" parent="1" source="iE8pw9dlS1XEyUqKu7f_-20" target="iE8pw9dlS1XEyUqKu7f_-19">
          <mxGeometry width="50" height="50" relative="1" as="geometry">
            <mxPoint x="350" y="810" as="sourcePoint" />
            <mxPoint x="400" y="760" as="targetPoint" />
          </mxGeometry>
        </mxCell>
        <mxCell id="iE8pw9dlS1XEyUqKu7f_-66" value="" style="endArrow=none;html=1;rounded=0;entryX=0.5;entryY=1;entryDx=0;entryDy=0;exitX=0.5;exitY=0;exitDx=0;exitDy=0;" edge="1" parent="1" source="iE8pw9dlS1XEyUqKu7f_-19" target="iE8pw9dlS1XEyUqKu7f_-18">
          <mxGeometry width="50" height="50" relative="1" as="geometry">
            <mxPoint x="350" y="810" as="sourcePoint" />
            <mxPoint x="400" y="760" as="targetPoint" />
          </mxGeometry>
        </mxCell>
        <mxCell id="iE8pw9dlS1XEyUqKu7f_-68" value="" style="endArrow=none;html=1;rounded=0;entryX=0.5;entryY=1;entryDx=0;entryDy=0;exitX=0.5;exitY=0;exitDx=0;exitDy=0;" edge="1" parent="1" source="iE8pw9dlS1XEyUqKu7f_-26" target="iE8pw9dlS1XEyUqKu7f_-25">
          <mxGeometry width="50" height="50" relative="1" as="geometry">
            <mxPoint x="350" y="810" as="sourcePoint" />
            <mxPoint x="400" y="760" as="targetPoint" />
          </mxGeometry>
        </mxCell>
        <mxCell id="iE8pw9dlS1XEyUqKu7f_-69" value="" style="endArrow=none;html=1;rounded=0;entryX=0.5;entryY=1;entryDx=0;entryDy=0;exitX=0.5;exitY=0;exitDx=0;exitDy=0;" edge="1" parent="1" source="iE8pw9dlS1XEyUqKu7f_-27" target="iE8pw9dlS1XEyUqKu7f_-26">
          <mxGeometry width="50" height="50" relative="1" as="geometry">
            <mxPoint x="350" y="810" as="sourcePoint" />
            <mxPoint x="400" y="760" as="targetPoint" />
          </mxGeometry>
        </mxCell>
        <mxCell id="iE8pw9dlS1XEyUqKu7f_-70" value="" style="endArrow=none;html=1;rounded=0;exitX=0.5;exitY=1;exitDx=0;exitDy=0;entryX=0.5;entryY=0;entryDx=0;entryDy=0;" edge="1" parent="1" source="iE8pw9dlS1XEyUqKu7f_-27" target="iE8pw9dlS1XEyUqKu7f_-46">
          <mxGeometry width="50" height="50" relative="1" as="geometry">
            <mxPoint x="350" y="810" as="sourcePoint" />
            <mxPoint x="400" y="760" as="targetPoint" />
          </mxGeometry>
        </mxCell>
        <mxCell id="iE8pw9dlS1XEyUqKu7f_-72" value="" style="endArrow=none;html=1;rounded=0;exitX=0.5;exitY=1;exitDx=0;exitDy=0;entryX=0.5;entryY=0;entryDx=0;entryDy=0;" edge="1" parent="1" source="iE8pw9dlS1XEyUqKu7f_-14" target="iE8pw9dlS1XEyUqKu7f_-43">
          <mxGeometry width="50" height="50" relative="1" as="geometry">
            <mxPoint x="350" y="810" as="sourcePoint" />
            <mxPoint x="100" y="960" as="targetPoint" />
          </mxGeometry>
        </mxCell>
        <mxCell id="iE8pw9dlS1XEyUqKu7f_-73" value="" style="endArrow=none;html=1;rounded=0;entryX=0.5;entryY=0;entryDx=0;entryDy=0;exitX=0.5;exitY=1;exitDx=0;exitDy=0;" edge="1" parent="1" source="iE8pw9dlS1XEyUqKu7f_-43" target="iE8pw9dlS1XEyUqKu7f_-34">
          <mxGeometry width="50" height="50" relative="1" as="geometry">
            <mxPoint x="350" y="810" as="sourcePoint" />
            <mxPoint x="400" y="760" as="targetPoint" />
          </mxGeometry>
        </mxCell>
        <mxCell id="iE8pw9dlS1XEyUqKu7f_-74" value="" style="endArrow=none;html=1;rounded=0;exitX=0.5;exitY=0;exitDx=0;exitDy=0;entryX=0.5;entryY=1;entryDx=0;entryDy=0;" edge="1" parent="1" source="iE8pw9dlS1XEyUqKu7f_-33" target="iE8pw9dlS1XEyUqKu7f_-46">
          <mxGeometry width="50" height="50" relative="1" as="geometry">
            <mxPoint x="450" y="960" as="sourcePoint" />
            <mxPoint x="460" y="930" as="targetPoint" />
          </mxGeometry>
        </mxCell>
        <mxCell id="iE8pw9dlS1XEyUqKu7f_-75" value="" style="endArrow=none;html=1;rounded=0;exitX=0.5;exitY=0;exitDx=0;exitDy=0;entryX=0.5;entryY=1;entryDx=0;entryDy=0;" edge="1" parent="1" source="iE8pw9dlS1XEyUqKu7f_-39" target="iE8pw9dlS1XEyUqKu7f_-33">
          <mxGeometry width="50" height="50" relative="1" as="geometry">
            <mxPoint x="350" y="810" as="sourcePoint" />
            <mxPoint x="400" y="760" as="targetPoint" />
          </mxGeometry>
        </mxCell>
        <mxCell id="iE8pw9dlS1XEyUqKu7f_-78" value="" style="endArrow=none;html=1;rounded=0;entryX=0.5;entryY=0;entryDx=0;entryDy=0;exitX=0.5;exitY=1;exitDx=0;exitDy=0;" edge="1" parent="1" source="iE8pw9dlS1XEyUqKu7f_-57" target="iE8pw9dlS1XEyUqKu7f_-58">
          <mxGeometry width="50" height="50" relative="1" as="geometry">
            <mxPoint x="680" y="640" as="sourcePoint" />
            <mxPoint x="400" y="760" as="targetPoint" />
          </mxGeometry>
        </mxCell>
        <mxCell id="iE8pw9dlS1XEyUqKu7f_-81" value="" style="endArrow=none;html=1;rounded=0;" edge="1" parent="1">
          <mxGeometry width="50" height="50" relative="1" as="geometry">
            <mxPoint x="110" y="560" as="sourcePoint" />
            <mxPoint x="560" y="550" as="targetPoint" />
            <Array as="points">
              <mxPoint x="340" y="560" />
            </Array>
          </mxGeometry>
        </mxCell>
        <mxCell id="iE8pw9dlS1XEyUqKu7f_-82" value="" style="endArrow=none;html=1;rounded=0;exitX=0.5;exitY=0;exitDx=0;exitDy=0;" edge="1" parent="1" source="iE8pw9dlS1XEyUqKu7f_-18">
          <mxGeometry width="50" height="50" relative="1" as="geometry">
            <mxPoint x="350" y="810" as="sourcePoint" />
            <mxPoint x="280" y="560" as="targetPoint" />
          </mxGeometry>
        </mxCell>
        <mxCell id="iE8pw9dlS1XEyUqKu7f_-83" value="" style="endArrow=none;html=1;rounded=0;exitX=0.5;exitY=0;exitDx=0;exitDy=0;" edge="1" parent="1" source="iE8pw9dlS1XEyUqKu7f_-10">
          <mxGeometry width="50" height="50" relative="1" as="geometry">
            <mxPoint x="350" y="810" as="sourcePoint" />
            <mxPoint x="110" y="560" as="targetPoint" />
          </mxGeometry>
        </mxCell>
        <mxCell id="iE8pw9dlS1XEyUqKu7f_-84" value="" style="endArrow=none;html=1;rounded=0;exitX=0.5;exitY=0;exitDx=0;exitDy=0;" edge="1" parent="1" source="iE8pw9dlS1XEyUqKu7f_-25">
          <mxGeometry width="50" height="50" relative="1" as="geometry">
            <mxPoint x="350" y="810" as="sourcePoint" />
            <mxPoint x="450" y="550" as="targetPoint" />
          </mxGeometry>
        </mxCell>
        <mxCell id="iE8pw9dlS1XEyUqKu7f_-86" value="" style="endArrow=classic;html=1;rounded=0;exitX=0;exitY=0.5;exitDx=0;exitDy=0;entryX=1;entryY=0.5;entryDx=0;entryDy=0;" edge="1" parent="1" source="iE8pw9dlS1XEyUqKu7f_-56" target="iE8pw9dlS1XEyUqKu7f_-8">
          <mxGeometry width="50" height="50" relative="1" as="geometry">
            <mxPoint x="350" y="540" as="sourcePoint" />
            <mxPoint x="400" y="490" as="targetPoint" />
          </mxGeometry>
        </mxCell>
        <mxCell id="iE8pw9dlS1XEyUqKu7f_-87" value="" style="endArrow=none;html=1;rounded=0;entryX=0.5;entryY=1;entryDx=0;entryDy=0;" edge="1" parent="1" target="iE8pw9dlS1XEyUqKu7f_-8">
          <mxGeometry width="50" height="50" relative="1" as="geometry">
            <mxPoint x="340" y="560" as="sourcePoint" />
            <mxPoint x="400" y="490" as="targetPoint" />
          </mxGeometry>
        </mxCell>
        <mxCell id="iE8pw9dlS1XEyUqKu7f_-88" value="" style="endArrow=none;html=1;rounded=0;exitX=0.5;exitY=0;exitDx=0;exitDy=0;entryX=0.5;entryY=1;entryDx=0;entryDy=0;" edge="1" parent="1" source="iE8pw9dlS1XEyUqKu7f_-57" target="iE8pw9dlS1XEyUqKu7f_-56">
          <mxGeometry width="50" height="50" relative="1" as="geometry">
            <mxPoint x="350" y="540" as="sourcePoint" />
            <mxPoint x="400" y="490" as="targetPoint" />
          </mxGeometry>
        </mxCell>
        <mxCell id="iE8pw9dlS1XEyUqKu7f_-89" value="Отмечать задачи как помеченные" style="rounded=0;whiteSpace=wrap;html=1;" vertex="1" parent="1">
          <mxGeometry x="570" y="880" width="120" height="60" as="geometry" />
        </mxCell>
        <mxCell id="iE8pw9dlS1XEyUqKu7f_-90" value="" style="endArrow=none;html=1;rounded=0;exitX=0.5;exitY=0;exitDx=0;exitDy=0;" edge="1" parent="1" source="iE8pw9dlS1XEyUqKu7f_-89">
          <mxGeometry width="50" height="50" relative="1" as="geometry">
            <mxPoint x="350" y="940" as="sourcePoint" />
            <mxPoint x="560" y="550" as="targetPoint" />
          </mxGeometry>
        </mxCell>
      </root>
    </mxGraphModel>
  </diagram>
</mxfile>
